<?xml version="1.0" encoding="UTF-8" standalone="yes"?>
<svg version="1.1" id="Layer_1" xmlns="http://www.w3.org/2000/svg" xmlns:xlink="http://www.w3.org/1999/xlink" x="0px" y="0px" viewBox="0 0 290.42 315" style="enable-background:new 0 0 290.42 315;" xml:space="preserve">
      <style type="text/css">.st0{fill:#55656B;}</style>
    <g id="color_index_0" fill="#55656b">
              <path d="M290.42,1.24c-27.95,0.89-75.9,1.33-143.85,1.33c-16.12,0-31.13-0.02-44.99-0.08V2.5&#x9;&#x9;c-7.3-0.37-14.61-0.56-21.92-0.58c-7.89-0.02-15.78-0.07-23.66-0.08c-5.01-0.01-10.02,0.02-15.02,0.01&#x9;&#x9;c-7.04-0.02-14.07-0.07-21.1-0.24C14.38,1.46,8.83,1.41,3.39,0.7C3.02,0.31,2.44,0.08,1.88,0.02C0.96-0.09,0.01,0.29,0,1.32&#x9;&#x9;s0.94,1.54,1.85,1.64c0.85,0.09,1.74-0.2,1.89-1.06C5.21,2.07,6.7,2.17,8.18,2.27c2.99,0.19,5.99,0.3,8.99,0.39&#x9;&#x9;c7.08,0.21,14.15,0.28,21.22,0.31c4.39,0.02,8.77,0.01,13.17,0.01c-0.12,0.21-0.17,0.46-0.09,0.72c0.18,0.56,0.76,0.67,1.27,0.49&#x9;&#x9;c0.5-0.19,0.92-0.65,0.74-1.21l0,0c0.44,0,0.88,0,1.32,0c7.97-0.01,15.93,0.08,23.9,0.07c6.78-0.01,13.56,0.13,20.33,0.46l0.6,0.03&#x9;&#x9;c1.09,0.06,1.94,0.95,1.94,2.04v0.61c-0.79-0.06-1.58-0.12-2.36-0.17c-2.05-0.14-4.1-0.23-6.15-0.3c0.1-0.1,0.18-0.22,0.24-0.38&#x9;&#x9;c0.23-0.65-0.25-1.21-0.84-1.45c-0.6-0.23-1.3-0.1-1.53,0.55c-0.17,0.49,0.03,0.94,0.39,1.22c-4.95-0.13-9.92-0.1-14.87,0.03&#x9;&#x9;C73.67,5.77,70.89,5.88,68.11,6c0.1-0.1,0.19-0.22,0.25-0.38c0.24-0.65-0.24-1.21-0.83-1.45c-0.59-0.25-1.3-0.14-1.53,0.52&#x9;&#x9;c-0.21,0.58,0.12,1.11,0.62,1.38c-4.29,0.2-8.58,0.43-12.88,0.66c-1.34,0.07-2.69,0.14-4.03,0.21c-0.04-0.05-0.1-0.1-0.18-0.13&#x9;&#x9;C46.18,5.26,42.64,4.29,39,3.89c-0.39-0.66-1.2-0.94-2.01-0.73c-1.03,0.28-1.82,1.17-1.62,2.26c0.2,1.09,1.21,1.46,2.22,1.22&#x9;&#x9;c0.82-0.2,1.5-0.79,1.63-1.6c2.75,0.33,5.44,1,8.02,2.01c-5.41,0.27-10.81,0.49-16.22,0.58c-3.99,0.07-7.97,0.06-11.96-0.06&#x9;&#x9;c-2.24-2.29-4.6-4.58-8.35-4.77C7.03,2.62,4.37,4.55,1.53,6.92L1.1,7.28L1.5,7.68c2.35,2.44,4.77,4.64,8.51,4.76&#x9;&#x9;c0.1,0,0.2,0.01,0.3,0.01c3.57,0,6.31-1.95,8.72-3.73c3.02,0.09,6.04,0.12,9.06,0.1c2.87-0.02,5.73-0.09,8.6-0.18&#x9;&#x9;c-2.52,0.84-5.13,1.4-7.76,1.81c-0.32-0.2-0.75-0.2-1.15-0.07c-0.62,0.2-1.1,0.77-0.87,1.43c0.22,0.66,0.93,0.78,1.53,0.57&#x9;&#x9;c0.41-0.15,0.77-0.46,0.89-0.84c3.72-0.58,7.36-1.49,10.82-3c3.53-0.14,7.04-0.31,10.56-0.49c3.19-0.17,6.37-0.34,9.56-0.51&#x9;&#x9;c-0.38,0.27-0.6,0.71-0.44,1.2c0.21,0.66,0.9,0.79,1.51,0.59c0.6-0.2,1.1-0.74,0.89-1.39c-0.07-0.22-0.2-0.38-0.35-0.49&#x9;&#x9;c3.85-0.2,7.7-0.38,11.55-0.51c7.51-0.26,15.04-0.32,22.55,0.04c1.27,0.06,2.55,0.14,3.82,0.23c1,0.07,1.78,0.91,1.78,1.91l0,0&#x9;&#x9;c-6.78-0.5-13.59-0.57-20.38-0.31c-7.65,0.3-15.29,1.02-22.88,2.03c-7.62,1.02-15.18,2.31-22.73,3.78&#x9;&#x9;c-5.03,0.98-10.07,2.12-15.16,2.61c-1.3-1.25-2.82-2.17-4.42-2.97c0.02-0.23-0.01-0.48-0.1-0.73c-0.3-0.8-1.24-1.19-2.04-0.88&#x9;&#x9;c-0.8,0.32-1.19,1.1-0.95,1.91c0.25,0.86,1.22,1.35,2.05,1.03c0.21-0.08,0.38-0.19,0.54-0.33c1.19,0.59,2.33,1.26,3.35,2.09&#x9;&#x9;c-2.11,0.15-4.23,0.18-6.36,0.03c-0.52-0.04-1.05-0.09-1.57-0.15c-0.02-0.06-0.02-0.12-0.05-0.17c-0.41-1.09-1.5-1.54-2.57-1.13&#x9;&#x9;c-1,0.38-1.55,1.53-1.19,2.53c0.4,1.1,1.5,1.61,2.58,1.18c0.63-0.25,1.06-0.72,1.23-1.29c3.99,0.42,7.96,0.22,11.91-0.3&#x9;&#x9;c-3.17,2.11-6.5,3.98-10.02,5.45c-0.18-0.2-0.42-0.35-0.72-0.44c-0.9-0.26-1.74,0.21-2.03,1.09c-0.3,0.88,0.13,1.73,1.02,1.99&#x9;&#x9;c0.9,0.26,1.74-0.22,2.02-1.1c0.06-0.17,0.07-0.33,0.08-0.48c4.29-1.78,8.31-4.13,12.09-6.81c0.02-0.02,0.04-0.04,0.06-0.06&#x9;&#x9;c2.25-0.36,4.5-0.79,6.74-1.25c7.59-1.54,15.22-2.92,22.89-4.04c7.61-1.1,15.27-1.93,22.95-2.34c0.62-0.03,1.23-0.06,1.84-0.09&#x9;&#x9;c-0.08,0.18-0.1,0.4-0.02,0.63c0.19,0.57,0.78,0.68,1.29,0.49c0.5-0.19,0.91-0.65,0.74-1.2c6.31-0.23,12.63-0.17,18.93,0.26&#x9;&#x9;c0.34,0.36,0.54,0.58,0.87,0.94l0,0c-1.68,0.02-3.05,0.1-3.92,0.21c-1.26,0.16-2.47,0.35-3.67,0.55c-0.03-0.01-0.05-0.02-0.09-0.02&#x9;&#x9;c-4.43-0.03-8.87,0.18-13.27,0.66c-7.09,0.41-14.16,1.11-21.17,2.29c-7.48,1.26-14.86,3.08-22.01,5.6c-0.6,0.21-1.2,0.44-1.8,0.66&#x9;&#x9;c-0.03-0.01-0.06-0.03-0.09-0.04c-3.38-0.42-6.25-0.42-9.23,0.97c-3.32,1.54-5.33,4.27-6.86,6.73c-0.09,0.15-0.1,0.34-0.03,0.5&#x9;&#x9;c0.07,0.16,0.23,0.28,0.41,0.31c1.48,0.24,2.82,0.39,4.1,0.39c1.87,0,3.59-0.33,5.34-1.2c2.98-1.48,4.76-3.89,6.4-6.47&#x9;&#x9;c3.84-1.43,7.75-2.67,11.72-3.72c6.55-1.72,13.23-2.92,19.97-3.74c-4.29,1.04-8.5,2.36-12.61,3.97&#x9;&#x9;c-5.91,2.33-11.57,5.25-16.89,8.72c-1.86,1.21-3.67,2.49-5.43,3.83c-1.21,0.84-2.48,1.54-3.79,2.14l0,0&#x9;&#x9;c-3.71,1.69-7.78,2.44-11.91,2.44c-1.39,0-2.78-0.07-4.17-0.21c-1.1-1.69-1.34-3.76-2.34-5.51c-0.92-1.61-2.6-2.61-4.43-2.79&#x9;&#x9;c-1.96-0.2-3.7,1.22-3.74,3.22c-0.04,1.95,1.56,3.56,3.16,4.43c2.05,1.12,4.34,1.57,6.66,1.71h0.01c4.52,0.49,9.13,0.35,13.49-0.88&#x9;&#x9;c-2.68,1.86-5.53,3.48-8.45,4.93c-0.02-0.01-0.03-0.02-0.05-0.02c-3.16-0.42-5.8-0.44-8.45,0.82c-2.68,1.27-4.29,3.33-5.87,6.04&#x9;&#x9;c-0.08,0.15-0.09,0.34-0.01,0.5c0.08,0.16,0.23,0.27,0.41,0.3c1.15,0.15,2.23,0.25,3.27,0.25c1.77,0,3.43-0.29,5.1-1.08&#x9;&#x9;c2.5-1.19,4.11-3.09,5.67-5.57c2.81-1.37,5.55-2.89,8.16-4.63c-0.78,0.71-1.54,1.43-2.29,2.17C18.02,44.32,13.66,49.5,9.73,55&#x9;&#x9;c-0.13,0.18-0.25,0.36-0.38,0.54C9,55.4,8.58,55.39,8.17,55.56c-0.85,0.34-1.27,1.32-0.94,2.17c0.35,0.88,1.24,1.26,2.11,0.9&#x9;&#x9;c0.88-0.37,1.26-1.28,0.9-2.16c-0.02-0.05-0.04-0.09-0.07-0.14c3.56-5.06,7.49-9.86,11.83-14.28c3.45-3.51,7.14-6.79,11.06-9.76&#x9;&#x9;l0.01-0.01l0,0c1.18-0.89,2.36-1.75,3.57-2.59c5.17-3.55,10.69-6.59,16.46-9.03c5.89-2.49,12.05-4.35,18.32-5.61&#x9;&#x9;c3.01-0.61,6.04-1.06,9.09-1.4c-2.04,0.33-4.07,0.73-6.09,1.18c-4.69,1.07-9.31,2.5-13.75,4.36c-4.34,1.82-8.5,4.01-12.41,6.63&#x9;&#x9;c-3.96,2.65-7.65,5.7-11.02,9.08c-0.78,0.78-1.53,1.59-2.28,2.41c-3.61,0.52-7,1.06-9.51,4.2c-2.57,3.21-2.33,7.03-1.82,10.99&#x9;&#x9;c0.04,0.27,0.26,0.47,0.54,0.47c0.01,0,0.02,0,0.04,0c3.63-0.27,7.38-0.82,9.85-4.32c2.28-3.24,2.12-6.74,1.95-10.45l-0.02-0.34&#x9;&#x9;c0.26-0.29,0.53-0.58,0.81-0.87c3.24-3.41,6.81-6.53,10.66-9.24c3.78-2.66,7.83-4.94,12.07-6.82c4.31-1.92,8.81-3.41,13.39-4.55&#x9;&#x9;c1.82-0.45,3.65-0.85,5.49-1.19c-3.47,1.27-6.89,2.67-10.23,4.26c-4.82,2.29-9.46,4.96-13.82,8.02c-0.22,0.15-0.44,0.32-0.66,0.47&#x9;&#x9;c-0.02,0-0.06,0-0.08,0.01c-3.03,0.7-5.47,1.56-7.59,3.51c-2.38,2.2-3.34,4.96-3.97,7.38c-0.05,0.19,0.01,0.39,0.15,0.52&#x9;&#x9;c0.1,0.1,0.23,0.15,0.37,0.15c0.05,0,0.1-0.01,0.15-0.02c2.89-0.87,5.24-1.85,7.29-3.75c1.81-1.68,3.08-3.76,4.08-6.69&#x9;&#x9;c2.2-1.58,4.47-3.06,6.8-4.45c4.73-2.8,9.69-5.17,14.8-7.17c0.01,0.03-0.01-0.03,0,0.01c-4.85,2.31-9.34,5.25-13.75,8.95&#x9;&#x9;c-0.26,0.22-0.5,0.44-0.76,0.66c-0.25-0.28-0.67-0.42-1.07-0.41c-0.62,0.02-1.3,0.33-1.31,1.02c-0.01,0.45,0.29,0.74,0.66,0.89&#x9;&#x9;c-3.94,3.54-7.58,7.35-10.99,11.55c-0.02,0.02-0.06,0.03-0.08,0.06c-3.59,3.83-7.32,7.52-11.28,10.97&#x9;&#x9;c-3.91,3.4-8.02,6.55-12.37,9.36c-2.45,1.59-4.97,3.06-7.54,4.43c-1.97-0.68-3.51-2.19-5.4-3.05c-2.09-0.95-4.56-0.77-6.41,0.64&#x9;&#x9;c-1.58,1.21-2.01,3.45-0.81,5.08c1.38,1.89,3.99,2.11,6.12,1.7c2.5-0.49,4.76-1.71,6.8-3.19c0.04-0.03,0.07-0.07,0.1-0.1&#x9;&#x9;c4.68-2.48,9.17-5.32,13.42-8.5c1.45-1.08,2.85-2.2,4.24-3.34c-1.07,1.21-2.13,2.41-3.19,3.63c-4.75,5.49-9.33,11.12-13.75,16.88&#x9;&#x9;c-0.13,0.17-0.26,0.34-0.39,0.52h-0.04c-3.26,0.21-6.63,0.42-8.93,3.32c-2.24,2.83-1.75,6.1-1.27,9.27l0.12,0.76l1-0.06&#x9;&#x9;c3.11-0.18,6.33-0.37,8.56-3.16c2.22-2.78,1.78-6.01,1.24-9.16c2.13-2.79,4.31-5.56,6.52-8.29c4.53-5.61,9.23-11.08,14.1-16.4&#x9;&#x9;c0.44-0.48,0.89-0.95,1.33-1.43c-1.3,1.71-2.59,3.43-3.86,5.17c-3.3,4.52-6.49,9.12-9.46,13.87c-1.53,2.45-3,4.93-4.41,7.46&#x9;&#x9;c-0.66,0.04-1.21,0.48-1.43,1.18c-0.28,0.9,0.15,1.8,1.06,2.1c0.92,0.3,1.77-0.19,2.05-1.1c0.22-0.72-0.01-1.43-0.57-1.84&#x9;&#x9;c2.53-4.53,5.29-8.93,8.2-13.23c1.93-2.85,3.93-5.65,5.96-8.42c-2.23,3.82-4.38,7.91-6.48,12.34c-1.59,3.34-3.08,6.72-4.47,10.11&#x9;&#x9;c-0.01,0.01-0.01,0.01-0.01,0.01c-2.92,4.72-6.52,9.04-10.71,12.68c-0.02-0.01-0.04-0.01-0.06-0.02c-3.15,0.05-5.75,0.41-8.18,2.04&#x9;&#x9;c-2.44,1.64-3.74,3.9-4.94,6.8c-0.07,0.17-0.05,0.36,0.05,0.5c0.1,0.15,0.26,0.23,0.44,0.23h0.01c3.13-0.04,5.71-0.39,8.14-2.03&#x9;&#x9;c2.25-1.51,3.56-3.59,4.72-6.22c2.31-1.95,4.45-4.09,6.41-6.4c-2.26,3.7-4.82,7.25-7.41,10.71c-0.9,1.21-1.82,2.4-2.75,3.59&#x9;&#x9;c-0.03,0.01-0.06,0-0.09,0.01c-1.66,0.47-3.29,1.12-4.68,2.16c-1.29,0.97-2.47,2.26-2.61,3.94c-0.14,1.62,1.08,3.13,2.76,3.14&#x9;&#x9;c1.55,0.01,3.13-1.18,3.86-2.48c0.5-0.89,0.64-1.94,0.76-2.93c0.11-0.89,0.22-1.78,0.48-2.63c0.01-0.01,0.02-0.01,0.02-0.01&#x9;&#x9;c3.75-4.79,7.4-9.71,10.59-14.9c-2.14,5.83-4.03,11.63-5.73,17.3c-0.06,0.02-0.11,0.05-0.17,0.1c-4.03,3.66-7.6,8.01-9.67,13.08&#x9;&#x9;c-0.25,0.6-0.46,1.21-0.65,1.82c-0.05,0.02-0.1,0.02-0.15,0.04c-1.28,0.49-1.89,1.75-1.49,3.03c0.41,1.32,1.88,2.05,3.17,1.56&#x9;&#x9;c1.32-0.5,1.93-1.84,1.44-3.17c-0.31-0.86-0.97-1.4-1.75-1.56c1.37-4.05,3.85-7.7,6.72-10.84c0.62-0.68,1.27-1.33,1.93-1.97&#x9;&#x9;c-1.4,4.74-2.66,9.36-3.83,13.79c-0.15-0.01-0.3,0.02-0.45,0.07c-0.65,0.22-1,0.97-0.76,1.61c0.23,0.64,0.86,0.95,1.49,0.75&#x9;&#x9;c0.14-0.04,0.26-0.15,0.34-0.27c0.68-1.02,0.53-1.26,0.39-1.51C18.99,103.8,24.39,85.34,32.66,68&#x9;&#x9;c8.55-17.93,17.81-30.5,30.02-40.77c10.1-8.48,20.6-12.91,35.11-14.8c0.88-0.12,2.19-0.18,3.77-0.21v251.54&#x9;&#x9;c0,12.36-1.27,21.34-3.76,26.92c-2.5,5.59-7.06,9.34-13.67,11.25c-6.63,1.93-17.15,2.87-31.55,2.87v6.35&#x9;&#x9;c-0.98,0.18-1.67,1.08-1.58,2.09c0.1,1.07,1.06,1.85,2.13,1.75c0.6-0.06,1.85-0.46,2.79-0.99c6.79,0.07,13.63-0.49,20.42-1.66&#x9;&#x9;c3.6-0.62,7.19-1.42,10.75-2.36c-0.88,0.6-1.67,1.33-1.74,2.47c-0.06,0.99,0.63,1.78,1.61,1.6c1.09-0.2,1.31-1.6,1.38-2.69&#x9;&#x9;c0.04-0.65,0.25-1.41,0.63-1.9c2.44-0.7,4.87-1.46,7.28-2.3c-0.56,0.04-1.11-0.01-1.61-0.26c-0.04-0.01-0.07-0.03-0.11-0.05&#x9;&#x9;c-0.14-0.07-0.26-0.17-0.38-0.28c-0.63-0.65-0.78-1.83-0.02-2.3c0.9-0.55,1.97,0.3,2.73,1.02c0.09,0.08,0.18,0.17,0.28,0.24&#x9;&#x9;c0.17,0.14,0.36,0.26,0.55,0.38c0.37,0.21,0.77,0.34,1.13,0.33c0.14-0.06,0.29-0.1,0.43-0.17c0.08-0.02,0.17-0.06,0.25-0.09&#x9;&#x9;c3.77-1.43,7.49-3.05,11.14-4.82c-0.78,1.28-1.53,2.72-0.82,4.21c0.47,1.02,1.62,1.42,2.51,0.74c1.03-0.79,0.5-2.37-0.01-3.54&#x9;&#x9;c-0.39-0.88-0.66-1.6-0.25-2.1c4.36-2.18,8.61-4.61,12.75-7.26c-0.25,0.04-0.5,0.09-0.75,0.1c-0.53,0.06-1.06,0.04-1.54-0.12&#x9;&#x9;c-0.59-0.19-1.18-0.61-1.27-1.79c-0.02-0.38,0.15-0.77,0.47-0.97c0.9-0.54,1.96,0.3,2.72,1.02c0.1,0.1,0.22,0.2,0.34,0.29&#x9;&#x9;c0.27,0.21,0.58,0.4,0.89,0.51c0.14,0.06,0.27,0.1,0.41,0.12c2.71-1.79,5.37-3.68,7.96-5.66c-0.55,1.05-1.02,2.2-0.44,3.35&#x9;&#x9;c0.44,0.87,1.43,1.19,2.18,0.57c0.85-0.71,0.34-2.04-0.14-3.02c-0.27-0.55-0.46-1.24-0.4-1.83c3.53-2.76,6.95-5.69,10.21-8.79&#x9;&#x9;c-0.6,0.32-1.22,0.61-1.85,0.76l-0.01,0.01c-0.31,0.08-0.63,0.13-0.95,0.13c-0.21,0-0.41-0.02-0.62-0.06&#x9;&#x9;c-1.42-0.26-2.55-2.08-1.61-3.17c0.92-1.09,2.66-0.46,3.96,0.15c0.34,0.17,0.73,0.31,1.12,0.4c0.2,0.04,0.4,0.08,0.6,0.1&#x9;&#x9;c0.43,0.05,0.85,0.02,1.21-0.1l0.01-0.01c3.13-3.09,6.12-6.34,8.94-9.73c-0.26,1.45-0.03,3.34,1.13,4.02&#x9;&#x9;c0.6,0.35,1.41,0.19,1.81-0.37c0.65-0.91-0.2-2.07-0.93-2.89c-0.52-0.58-0.97-1.43-0.89-2.13c2.25-2.77,4.39-5.62,6.42-8.58&#x9;&#x9;c3.39-4.95,6.48-10.13,9.28-15.54c-0.47,0.41-0.98,0.76-1.54,0.99c-0.16,0.07-0.33,0.12-0.5,0.16c-0.13,0.03-0.26,0.06-0.4,0.07&#x9;&#x9;c-1.43,0.15-3.03-1.27-2.45-2.59c0.58-1.3,2.43-1.19,3.84-0.97c0.25,0.04,0.51,0.06,0.78,0.06c0.15,0.01,0.3,0.01,0.44-0.01&#x9;&#x9;c0.38-0.02,0.76-0.09,1.09-0.2v-0.01c4.89-9.86,8.8-20.44,11.76-31.69c-3.07,15.64-8.6,35.37-18.49,53.01&#x9;&#x9;c-0.3,0.54-0.62,1.06-0.93,1.59c-0.93,0.28-2.12,0.2-2.89-0.06s-1.61-0.22-2.29,0.22c-2.22,1.44-0.18,3.7,1.6,3.51&#x9;&#x9;c0.68-0.07,1.29-0.36,1.85-0.76c-3.38,5.53-7.08,10.74-11.07,15.57c-0.74,0.09-1.68-0.2-2.23-0.57c-0.47-0.31-1.05-0.47-1.6-0.31&#x9;&#x9;c-1.95,0.57-0.93,2.61,0.39,2.81c0.78,0.12,1.54-0.17,2.25-0.55c-4.07,4.79-8.42,9.2-13.03,13.2c-1.52,0.14-8.8,1.02-15.34,5.54&#x9;&#x9;c-7.18,4.98-10.55,12.35-10.69,12.67c-0.09,0.2-0.07,0.44,0.06,0.62c0.12,0.17,0.31,0.28,0.52,0.28c0.01,0,0.02,0,0.04,0&#x9;&#x9;c0.34-0.02,8.44-0.59,15.62-5.57c6.95-4.82,10.33-11.88,10.67-12.61c3.2-2.77,6.28-5.76,9.24-8.92c-0.28,1.29-0.38,2.65,0.59,3.7&#x9;&#x9;c0.76,0.82,1.97,0.87,2.61-0.04c0.75-1.06-0.22-2.42-1.06-3.38c-0.52-0.6-0.94-1.12-0.93-1.62c3.53-3.89,6.85-8.05,9.97-12.45&#x9;&#x9;c-0.18,1.28-0.1,2.57,0.91,3.58c0.84,0.84,2.18,0.81,2.85-0.17c0.82-1.2-0.28-2.71-1.24-3.78c-0.43-0.49-0.84-1.12-1.05-1.75&#x9;&#x9;c2.21-3.25,4.31-6.63,6.27-10.13c1.26-2.25,2.44-4.52,3.57-6.82c-0.11,1.14,0.04,2.26,0.95,3.16c0.86,0.86,2.19,0.84,2.87-0.15&#x9;&#x9;c0.82-1.2-0.28-2.71-1.24-3.78c-0.54-0.6-1.03-1.43-1.16-2.2c6.28-13.62,10.31-27.76,12.9-39.89c-2.18,15.52-4.81,31.25-9.46,46.32&#x9;&#x9;c-4.34,14.06-10.13,26.27-17.26,36.49c-0.01,0-0.02-0.01-0.02-0.01c-0.35-0.02-8.71-0.42-13.39,4.58c-4.68,5-3.72,13.31-3.67,13.67&#x9;&#x9;c0.04,0.31,0.29,0.54,0.6,0.56c0.06,0.01,0.3,0.02,0.7,0.02c2.15,0,8.74-0.36,12.69-4.6c3.91-4.18,3.88-10.67,3.73-12.9&#x9;&#x9;c4.87-6.87,9.11-14.65,12.72-23.28c-0.78,4.19-1.36,8.39-1.76,12.58c-1.13,1.62-4.45,6.93-4.6,13.46&#x9;&#x9;c-0.17,7.68,4.16,13.92,4.34,14.18c0.12,0.17,0.3,0.26,0.5,0.27c0.01,0,0.01,0,0.01,0c0.2,0,0.38-0.09,0.5-0.25&#x9;&#x9;c0.2-0.25,4.8-6.29,4.97-13.97c0.17-7.68-4.16-13.92-4.34-14.18c-0.02-0.02-0.04-0.05-0.06-0.07c0.65-6.48,1.75-12.96,3.3-19.4&#x9;&#x9;c0.01-0.02,0-0.04,0-0.05c0.22-0.63,0.45-1.26,0.66-1.9c0.01,0.57,0.15,1.13,0.6,1.62c0.6,0.66,1.59,0.73,2.13,0.01&#x9;&#x9;c0.63-0.84-0.1-1.98-0.74-2.81c-0.65-0.82-0.87-1.98-0.55-3.19v0.01c0.05-0.16,0.1-0.31,0.15-0.47&#x9;&#x9;c3.64-11.78,6.03-23.93,7.95-36.07c-1.02,11.51-2.84,22.93-4.05,34.43c-0.62,5.86-1.03,11.76-1.05,17.65&#x9;&#x9;c-0.53,0.56-1.51,0.91-2.19,0.95c-0.57,0.04-1.11,0.26-1.45,0.71c-1.22,1.63,0.84,2.64,2.01,2.01c0.82-0.44,1.27-1.31,1.63-2.18&#x9;&#x9;c0.01,0.88,0.02,1.76,0.05,2.64c0.12,3.98,0.36,8.09,1.02,12.11c0,0.01,0,0.01,0,0.02c1.43,7.53,0.65,14.77-2.09,19.57&#x9;&#x9;c-1.13,0.32-2.7,1.58-3.19,2.21c-0.66,0.86-0.5,2.08,0.36,2.73c0.86,0.66,2.08,0.5,2.73-0.36c0.55-0.73,1.52-3,1.28-4.08&#x9;&#x9;c1.83-3.27,2.81-7.57,2.89-12.29c0.15,0.43,0.32,0.86,0.49,1.29c2.53,6.26,7.55,11.98,14.42,13.3c0.5,0.98,2.75,2.09,3.65,2.27&#x9;&#x9;c1.05,0.22,2.09-0.47,2.3-1.52c0.22-1.05-0.47-2.09-1.52-2.3c-0.77-0.15-2.7-0.07-3.78,0.39c-3.76-0.65-6.95-2.69-9.45-5.43&#x9;&#x9;c0.82,0.22,1.66,0.23,2.49-0.27c0.92-0.56,1.21-1.73,0.48-2.53c-0.86-0.95-2.4-0.31-3.53,0.28c-0.4,0.21-0.76,0.39-1.09,0.49&#x9;&#x9;c-0.93-1.3-1.73-2.7-2.38-4.15c-1.25-2.79-2.07-5.75-2.63-8.79c-0.02-0.14-0.05-0.28-0.07-0.42c-0.66-3.82-0.91-7.74-1.06-11.52&#x9;&#x9;c-0.18-4.66-0.07-9.3,0.22-13.94c0.67,0.62,1.88,0.81,2.74,0.34c0.99-0.54,1.59-1.54,2.05-2.59c0.01,1.03,0.02,2.05,0.04,3.08&#x9;&#x9;c0.06,4.19,0.01,8.38,0.21,12.56c0.07,1.5,0.17,3.06,0.33,4.63c-0.55,0.38-1.3,0.62-1.84,0.65c-0.57,0.04-1.11,0.26-1.45,0.71&#x9;&#x9;c-1.22,1.63,0.84,2.64,2.01,2.01c0.7-0.38,1.13-1.06,1.46-1.79c0.77,6.01,2.57,12.06,7.22,16.03c6.4,5.47,15.66,6.54,23.76,6.94&#x9;&#x9;c0.84,0.04,10.32,0.07,13.91,0.1l0.01,0.06c1.06,0.64,2.9,1.85,4.15,1.85c1.24,0.01,3.49-0.91,3.46-2.15&#x9;&#x9;c-0.02-0.78-0.56-1.46-1.19-1.9c-1.78-1.25-4.46-0.74-5.86,0.87c-3.01-0.02-13.61-0.06-14.51-0.1c-3.14-0.15-6.28-0.44-9.38-1&#x9;&#x9;c-4.05-0.74-8.12-1.93-11.6-4.19c-3.48-2.26-5.62-5.54-6.96-9.21c0.82,0.65,1.75,1.1,2.89,0.86c1.06-0.23,1.71-1.26,1.27-2.25&#x9;&#x9;c-0.52-1.19-2.18-1.06-3.44-0.84c-0.54,0.09-1.02,0.15-1.4,0.1c-0.89-3.21-1.28-6.61-1.49-9.86c-0.09-1.47-0.14-2.94-0.18-4.41&#x9;&#x9;c0.5,0.97,1.2,1.79,2.37,2.02c1.08,0.22,2.09-0.47,2.07-1.57c-0.01-1.3-1.59-1.83-2.84-2.12c-0.56-0.13-1.18-0.38-1.65-0.73&#x9;&#x9;c-0.02-1.78-0.02-3.56-0.04-5.33c-0.05-4.87-0.13-9.74-0.18-14.61c-0.01-1.32-0.02-2.65-0.04-3.97c0.59,1.23,1.4,2.33,2.87,2.6&#x9;&#x9;c1.19,0.22,2.28-0.56,2.28-1.78c-0.01-1.45-1.79-2.05-3.19-2.38c-0.68-0.16-1.43-0.47-1.98-0.92&#x9;&#x9;c-0.07-8.24,2.47-234.01,2.47-234.01h0.43c17.66,0,34.12,8.55,49.42,25.6c15.29,17.07,27.8,44.86,37.51,83.39h10.15&#x9;&#x9;c-0.89-7.64-1.33-18.24-1.33-31.77C287.32,63.02,288.36,33.89,290.42,1.24z M5.38,7.84c3.97,0.41,7.96,0.66,11.94,0.82&#x9;&#x9;c-2.13,1.51-4.42,2.82-7.28,2.74c-3.16-0.1-5.26-1.85-7.4-4.03c2.58-2.12,4.87-3.67,8-3.51C13.6,4,15.59,5.62,17.52,7.52&#x9;&#x9;c-3.12-0.11-6.23-0.29-9.35-0.56C7.24,6.88,6.31,6.8,5.38,6.7C4.65,6.63,4.66,7.76,5.38,7.84z M28.82,27.77&#x9;&#x9;c-2.47,1.23-4.93,1.27-7.99,0.83c1.39-2.13,3.21-4.34,5.96-5.63c2.18-1.02,4.26-1.22,6.66-1.07c-2.74,1.08-5.44,2.24-8.09,3.51&#x9;&#x9;c-0.66,0.31-0.09,1.3,0.57,0.98c2.64-1.27,5.32-2.42,8.04-3.49C32.63,24.87,31.09,26.63,28.82,27.77z M6.78,34.57&#x9;&#x9;c-1.44-0.62-3.07-1.62-3.5-3.25c-0.18-0.68-0.07-1.44,0.38-2c0.52-0.63,1.29-0.86,2.08-0.78c1.54,0.15,2.87,1.05,3.6,2.41&#x9;&#x9;c0.79,1.48,1.1,3.15,1.85,4.64C9.68,35.45,8.18,35.16,6.78,34.57z M8.63,45.01c0.07,0.27,0.41,0.51,0.7,0.4&#x9;&#x9;c1.94-0.76,3.86-1.58,5.76-2.44c-1.17,1.61-2.46,2.87-4.23,3.7c-2.18,1.04-4.39,1.12-6.95,0.84c1.35-2.18,2.78-3.86,4.98-4.9&#x9;&#x9;c1.96-0.93,3.96-1.08,6.23-0.9c-0.52,0.24-1.04,0.49-1.56,0.71c-1.5,0.66-3.01,1.29-4.53,1.9C8.73,44.42,8.54,44.69,8.63,45.01z&#x9;&#x9; M33.18,48.03c-2.09,2.95-5.33,3.56-8.54,3.83c-0.43-3.54-0.55-6.93,1.65-9.68c1.97-2.47,4.57-3.14,7.57-3.61&#x9;&#x9;c-2.24,2.56-4.33,5.25-6.24,8.06c-0.38,0.55-0.74,1.11-1.11,1.67c-0.4,0.62,0.58,1.19,0.98,0.57c2.26-3.46,4.74-6.77,7.48-9.87&#x9;&#x9;C35.11,42.24,35.1,45.31,33.18,48.03z M49.29,34.93c-1.68,1.56-3.61,2.46-5.93,3.22c0.61-2.08,1.51-4.17,3.4-5.91&#x9;&#x9;c1.34-1.23,2.84-1.99,4.58-2.57c-1.47,1.13-2.91,2.28-4.31,3.49c-0.55,0.48,0.25,1.28,0.81,0.81c1.52-1.3,3.08-2.56,4.68-3.77&#x9;&#x9;C51.66,32.18,50.64,33.69,49.29,34.93z M11.71,67.9c-1.8,0.54-4.17,0.87-5.73-0.44c-1.29-1.08-1.31-3-0.01-4.07&#x9;&#x9;c1.58-1.3,3.81-1.39,5.6-0.5c1.63,0.81,3.02,2.02,4.68,2.76C14.84,66.6,13.35,67.41,11.71,67.9z M16.5,84.56&#x9;&#x9;c-1.91,2.39-4.72,2.56-7.7,2.74c-0.44-2.96-0.79-5.75,1.08-8.13c1.77-2.25,4.36-2.63,7.17-2.83c-2.01,2.65-4.01,5.33-5.95,8.03&#x9;&#x9;c-0.43,0.6,0.56,1.16,0.98,0.57c1.83-2.55,3.7-5.07,5.6-7.57C18.08,79.99,18.19,82.45,16.5,84.56z M9.11,96.95&#x9;&#x9;c1.93-1.1,3.76-2.34,5.51-3.69c-0.86,1.5-1.88,2.75-3.32,3.72c-1.99,1.34-4.16,1.74-6.72,1.83c1.04-2.36,2.21-4.21,4.22-5.56&#x9;&#x9;c1.9-1.27,3.94-1.69,6.35-1.82c-0.57,0.47-1.16,0.93-1.75,1.37c-1.56,1.15-3.18,2.21-4.86,3.17C7.9,96.33,8.47,97.31,9.11,96.95z&#x9;&#x9; M11.59,104.67c-0.31,1.36-1.26,2.44-2.58,2.9c-0.63,0.22-1.22,0.18-1.78-0.22c-0.47-0.34-0.67-0.92-0.66-1.48&#x9;&#x9;c0.02-1.35,1.08-2.47,2.09-3.23c1.08-0.81,2.29-1.37,3.57-1.79C11.91,102.1,11.89,103.41,11.59,104.67z M129.16,305.98&#x9;&#x9;c-5.34,3.7-11.36,4.87-13.82,5.21c1.18-2.19,4.39-7.42,9.73-11.12c4.69-3.25,9.92-4.55,12.79-5.05c-4.23,3.51-8.66,6.69-13.25,9.48&#x9;&#x9;c-0.3,0.18-0.39,0.57-0.22,0.87c0.12,0.2,0.33,0.31,0.54,0.31c0.11,0,0.23-0.03,0.33-0.09c4.33-2.63,8.52-5.59,12.53-8.85&#x9;&#x9;C136.17,299.31,133.32,303.1,129.16,305.98z M175.93,296.86c-0.13,5.75-2.97,10.64-4.17,12.47c-1.12-1.87-3.74-6.88-3.62-12.64&#x9;&#x9;c0.1-4.37,1.76-8.24,3.08-10.65c-0.5,6.76-0.52,13.52-0.04,20.22c0.02,0.33,0.3,0.59,0.63,0.59c0.02,0,0.03,0,0.05,0&#x9;&#x9;c0.35-0.02,0.62-0.33,0.59-0.68c-0.52-7.11-0.46-14.27,0.15-21.45C173.83,286.88,176.05,291.56,175.93,296.86z M155.85,305.91&#x9;&#x9;c-3.62,3.86-9.95,4.18-11.84,4.18c-0.12-1.89-0.24-8.22,3.38-12.1c3.48-3.72,9.46-4.15,11.59-4.18&#x9;&#x9;c-3.21,4.45-6.68,8.53-10.41,12.18c-0.25,0.25-0.26,0.65-0.01,0.9c0.12,0.13,0.29,0.19,0.46,0.19c0.16,0,0.32-0.06,0.44-0.18&#x9;&#x9;c3.49-3.43,6.76-7.22,9.8-11.33C159.23,298.32,158.69,302.87,155.85,305.91z M185.48,260.19c-0.87,0.2-1.88,0.51-2.53,1.06&#x9;&#x9;c0.67-8.77,1.93-17.51,3.03-26.23c0.54-4.2,1.03-8.41,1.43-12.63c-0.1,8.98-0.07,17.96,0.02,26.94c0.03,3.29,0.08,6.57,0.12,9.86&#x9;&#x9;C187,259.68,186.2,260.02,185.48,260.19z M39.94,42.55c0.62,0.04,0.77,0.56,0.57,1.1c-0.2,0.54-0.73,1.05-1.34,1&#x9;&#x9;c-0.62-0.05-0.79-0.56-0.58-1.11C38.79,42.99,39.33,42.51,39.94,42.55z M7.22,73.17C7.56,72.41,8.4,71.9,9.24,72&#x9;&#x9;c0.84,0.1,1.14,0.78,0.81,1.53c-0.33,0.76-1.18,1.29-2.01,1.17C7.2,74.59,6.87,73.92,7.22,73.17z M2.97,39.68&#x9;&#x9;c-0.2-0.63,0.12-1.22,0.74-1.43s1.25,0.2,1.46,0.82c0.2,0.62-0.04,1.34-0.71,1.48C3.8,40.69,3.16,40.3,2.97,39.68z M3.1,23.58&#x9;&#x9;c-0.19-0.63,0.12-1.22,0.75-1.42c0.63-0.21,1.25,0.2,1.45,0.82c0.2,0.62-0.05,1.34-0.71,1.48C3.93,24.6,3.29,24.21,3.1,23.58z&#x9;&#x9; M40.4,36.98c-0.66-0.02-0.93-0.63-0.85-1.23s0.47-1.21,1.12-1.17c0.65,0.04,0.9,0.66,0.84,1.25&#x9;&#x9;C41.45,36.43,41.06,37.01,40.4,36.98z M43.23,26.92c-0.02-0.67,0.58-1.05,1.19-1.08c0.61-0.02,1.24,0.25,1.25,0.92&#x9;&#x9;c0.01,0.66-0.61,1.02-1.22,1.08C43.85,27.9,43.25,27.59,43.23,26.92z M51.13,43.59c-0.66-0.01-1.03-0.58-1-1.21&#x9;&#x9;c0.03-0.63,0.49-1.18,1.14-1.17c0.66,0.01,1.02,0.56,0.98,1.19C52.21,43.02,51.8,43.59,51.13,43.59z M6.09,116.05&#x9;&#x9;c-0.68,0.25-1.37-0.07-1.62-0.75c-0.25-0.68,0.05-1.37,0.74-1.62c0.68-0.25,1.37,0.07,1.62,0.75&#x9;&#x9;C7.09,115.12,6.78,115.8,6.09,116.05z M16.09,70.66c-0.19-0.51,0.14-1,0.61-1.2c0.47-0.2,1-0.12,1.19,0.39&#x9;&#x9;c0.19,0.51-0.14,1-0.6,1.22C16.82,71.28,16.28,71.17,16.09,70.66z M18.09,57.1c-0.19-0.51,0.15-0.98,0.61-1.19&#x9;&#x9;c0.46-0.21,0.99-0.14,1.18,0.37c0.19,0.51-0.14,1-0.6,1.22C18.82,57.72,18.29,57.61,18.09,57.1z M9.78,63.91&#x9;&#x9;c0.15,0.5-0.09,0.99-0.59,1.15c-0.5,0.17-0.97-0.09-1.11-0.59c-0.15-0.5,0.09-0.99,0.59-1.15C9.17,63.16,9.64,63.41,9.78,63.91z&#x9;&#x9; M7.76,30.88c-0.17,0.43-0.6,0.63-1.04,0.47c-0.44-0.16-0.63-0.6-0.46-1.03c0.17-0.43,0.6-0.63,1.04-0.47&#x9;&#x9;C7.73,30.02,7.92,30.45,7.76,30.88z M9.12,106.05c-0.21-0.33-0.12-0.73,0.21-0.94c0.33-0.21,0.73-0.12,0.94,0.21&#x9;&#x9;c0.21,0.33,0.12,0.73-0.21,0.94C9.73,106.47,9.33,106.39,9.12,106.05z"/>
          </g>
  </svg>